<?xml version="1.0" encoding="utf-8"?>
<!-- Svg Vector Icons : http://www.onlinewebfonts.com/icon -->
<!DOCTYPE svg PUBLIC "-//W3C//DTD SVG 1.1//EN" "http://www.w3.org/Graphics/SVG/1.1/DTD/svg11.dtd">
<svg version="1.1" xmlns="http://www.w3.org/2000/svg" xmlns:xlink="http://www.w3.org/1999/xlink" x="0px" y="0px" viewBox="0 0 1000 1000" enable-background="new 0 0 1000 1000" xml:space="preserve">
<metadata> Svg Vector Icons : http://www.onlinewebfonts.com/icon </metadata>
<g><path d="M487.7,10"/><path d="M799.9,295.6H642V264c0-34.9-28.3-63.1-63.1-63.1H421.1c-34.9,0-63.1,28.3-63.1,63.1v31.6H200.1v31.6h32.5l31.6,599.7c0,34.9,28.3,63.1,63.1,63.1h347.2c34.9,0,63.1-28.3,63.1-63.1l31-599.7h31.1V295.6L799.9,295.6z M389.5,264c0-17.4,14.2-31.6,31.6-31.6h157.8c17.4,0,31.6,14.1,31.6,31.6v31.6H389.5V264z M706.2,925.2l-0.1,0.8v0.8c0,17.4-14.1,31.6-31.6,31.6H327.4c-17.4,0-31.6-14.2-31.6-31.6V926l0-0.8l-31.5-598h472.9L706.2,925.2z"/><path d="M484.2,390.3h31.6v505h-31.6V390.3L484.2,390.3z"/><path d="M421.8,894.3l-32.3-504l-31.5,2l32.3,504L421.8,894.3z"/><path d="M642.3,391.3l-31.5-2l-31.8,505l31.5,2L642.3,391.3z"/></g>
</svg>