<?xml version="1.0" encoding="utf-8"?>
<!-- Svg Vector Icons : http://www.onlinewebfonts.com/icon -->
<!DOCTYPE svg PUBLIC "-//W3C//DTD SVG 1.1//EN" "http://www.w3.org/Graphics/SVG/1.1/DTD/svg11.dtd">
<svg version="1.1" xmlns="http://www.w3.org/2000/svg" xmlns:xlink="http://www.w3.org/1999/xlink" x="0px" y="0px" viewBox="0 0 1000 1000" enable-background="new 0 0 1000 1000" xml:space="preserve">
<metadata> Svg Vector Icons : http://www.onlinewebfonts.com/icon </metadata>
<g><g transform="translate(0.000000,511.000000) scale(0.100000,-0.100000)"><path d="M4652.6,4952.5C2951.2,4846.7,1393.9,3812.4,627,2281.5C151,1332.4-1.9,351,165.6-671.6c296.8-1821.8,1639.6-3341,3423.2-3875.8c561.2-167.5,1119.5-226.2,1757.2-188c1210.6,70.5,2344.8,605.3,3208.7,1513.3c819.8,858,1269.4,1901.1,1339.9,3102.9c29.4,534.8-64.6,1219.4-238,1745.4c-126.3,379.1-464.3,1025.5-690.5,1331.1c-358.5,479-822.8,916.8-1298.8,1228.2c-646.4,420.2-1516.2,717-2233.2,758.1c-149.8,5.9-311.5,17.6-361.4,20.6C5025.7,4970.1,4834.8,4964.3,4652.6,4952.5z M7444.1,348c82.3-82.3,97-114.6,97-241c0-126.3-14.7-158.7-97-240.9l-94-97l-2256.7-8.8c-1648.5-5.9-2274.3,2.9-2336,26.4c-117.5,50-196.9,176.3-196.9,320.3c0,152.8,38.2,223.3,155.7,296.8c91.1,55.8,155.7,55.8,2362.5,49.9L7350,445L7444.1,348z"/></g></g>
</svg>